<?xml version="1.0" encoding="UTF-8"?>
<svg width="24" height="24" viewBox="0 0 24 24" fill="none" xmlns="http://www.w3.org/2000/svg">
  <path d="M12 4.5C13.6569 4.5 15 5.84315 15 7.5V8.25M12 4.5C10.3431 4.5 9 5.84315 9 7.5V8.25M12 4.5V2.25M15 8.25C16.6569 8.25 18 9.59315 18 11.25C18 12.9069 19.3431 14.25 21 14.25M15 8.25H9M9 8.25C7.34315 8.25 6 9.59315 6 11.25C6 12.9069 4.65685 14.25 3 14.25M21 14.25C21 15.9069 19.6569 17.25 18 17.25C16.3431 17.25 15 18.5931 15 20.25V21.75M21 14.25C21.8284 14.25 22.5 14.9216 22.5 15.75V16.5M3 14.25C3 15.9069 4.34315 17.25 6 17.25C7.65685 17.25 9 18.5931 9 20.25V21.75M3 14.25C2.17157 14.25 1.5 14.9216 1.5 15.75V16.5M9 21.75H15M9 21.75H8.25M15 21.75H15.75" stroke="#A855F7" stroke-width="1.5" stroke-linecap="round" stroke-linejoin="round"/>
</svg>